<?xml version="1.0" encoding="UTF-8"?><svg id="b" xmlns="http://www.w3.org/2000/svg" viewBox="0 0 24.5 24.5"><g id="c"><path d="M18.39,13.32v-2.13l-1.59,1.07,1.59,1.07ZM19.67,14.51s0,.06,0,.08v.03s-.02.05-.02.05v.03s-.02.03-.03.05v.03s-.03.03-.03.04l-.02.03s-.05.07-.08.1l-.03.02s-.02.02-.04.03l-.03.02h-.01s-6.78,4.53-6.78,4.53c-.21.14-.49.14-.71,0l-6.78-4.52h-.01s-.04-.04-.07-.06l-.03-.02-.03-.03-.02-.03s-.05-.07-.07-.11v-.03s-.03-.03-.03-.05v-.03s-.02-.04-.02-.05v-.03s-.01-.06-.01-.08v-4.52s0-.06,0-.08v-.03s.02-.05.02-.05v-.03c.03-.08.07-.15.13-.22l.03-.03.03-.02s.04-.04.07-.05h.01s6.78-4.53,6.78-4.53c.21-.14.49-.14.71,0l6.78,4.52h.01s.03.03.03.03l.03.03s.02.02.03.02c.03.03.06.06.08.1l.02.03s.01.03.02.04v.03s.03.03.03.05v.03s.02.04.02.05v.03s.01.06.01.08v4.52ZM12.25.25C5.62.25.25,5.62.25,12.25s5.37,12,12,12,12-5.37,12-12S18.88.25,12.25.25M12.25,10.74l-2.26,1.51,2.26,1.51,2.26-1.51-2.26-1.51ZM12.89,14.87v2.98l5-3.33-2.23-1.49-2.76,1.85ZM6.62,14.51l5,3.33v-2.97l-2.76-1.85-2.23,1.49ZM17.88,9.99l-5-3.33v2.97l2.76,1.85,2.23-1.49ZM11.61,9.63v-2.97l-5,3.33,2.23,1.49,2.76-1.85ZM6.11,11.18v2.13l1.59-1.07-1.59-1.07Z" fill="none" stroke="#000" stroke-linecap="round" stroke-miterlimit="10" stroke-width=".5"/></g></svg>