<?xml version="1.0" encoding="UTF-8"?><svg id="b" xmlns="http://www.w3.org/2000/svg" viewBox="0 0 24 23.91"><g id="c"><path d="M12,.5c6.34,0,11.5,5.16,11.5,11.5,0,5.62-4.07,10.4-9.55,11.33v-7.17h3.16l.08-.41.29-1.56.39-2.1.11-.59h-4.02v-.8c0-.67.1-1.16.3-1.49.12-.19.28-.34.48-.44.33-.17.81-.25,1.48-.25.23,0,.46,0,.69,0,.21,0,.41.01.62.03l.55.05v-4.27l-.38-.09c-.4-.1-.8-.16-1.2-.21-.57-.07-1.13-.11-1.53-.11-4.28,0-6.36,2.12-6.36,6.48v1.08h-2.47v4.67h2.47v6.82C3.8,21.51.5,17.08.5,12,.5,5.66,5.66.5,12,.5M12,0C5.37,0,0,5.37,0,12c0,5.63,3.87,10.35,9.1,11.65v-7.98h-2.47v-3.67h2.47v-1.58c0-4.09,1.85-5.98,5.86-5.98.4,0,.95.04,1.47.1.38.04.77.1,1.14.19v3.32c-.22-.02-.43-.03-.65-.04-.23,0-.46,0-.7,0-.01,0-.02,0-.04,0-.71,0-1.26.1-1.67.31-.28.14-.51.36-.68.62-.26.42-.37.99-.37,1.75v1.3h3.92l-.39,2.1-.29,1.56h-3.25v8.24c5.94-.72,10.55-5.78,10.55-11.91C24,5.37,18.63,0,12,0h0Z"/></g></svg>