<?xml version="1.0" encoding="UTF-8"?><svg id="b" xmlns="http://www.w3.org/2000/svg" viewBox="0 0 23.99 23.41"><g id="c"><path d="M11.99.24C5.5.24.24,5.51.24,11.99c0,5.19,3.37,9.6,8.03,11.15.59.11.8-.25.8-.56,0-.28,0-1.02-.01-2-3.27.71-3.96-1.58-3.96-1.58-.53-1.36-1.31-1.72-1.31-1.72-1.06-.73.08-.71.08-.71,1.18.08,1.8,1.21,1.8,1.21,1.05,1.8,2.75,1.28,3.42.98.11-.76.41-1.28.74-1.57-2.61-.29-5.35-1.3-5.35-5.81,0-1.28.46-2.33,1.21-3.15-.13-.3-.53-1.49.1-3.11,0,0,.98-.32,3.23,1.2.94-.26,1.94-.39,2.94-.4,1,0,2,.14,2.94.4,2.23-1.52,3.22-1.2,3.22-1.2.63,1.62.23,2.81.12,3.11.75.82,1.2,1.87,1.2,3.15,0,4.51-2.75,5.51-5.36,5.8.41.35.79,1.07.79,2.17,0,1.57-.01,2.84-.01,3.22,0,.31.21.68.81.56,4.7-1.54,8.06-5.95,8.06-11.13C23.74,5.51,18.48.24,11.99.24" fill="none" stroke="#000" stroke-miterlimit="10" stroke-width=".49"/></g></svg>