<?xml version="1.0" encoding="UTF-8"?><svg id="b" xmlns="http://www.w3.org/2000/svg" viewBox="0 0 23.99 23.99"><g id="c"><path d="M7.13.33c-1.25.06-2.1.26-2.85.55-.77.3-1.43.71-2.08,1.36-.65.65-1.05,1.31-1.35,2.08-.29.75-.49,1.6-.54,2.85-.06,1.25-.07,1.65-.06,4.84,0,3.19.02,3.59.08,4.84.06,1.25.26,2.1.55,2.85.3.77.71,1.43,1.36,2.08.65.65,1.31,1.05,2.08,1.35.75.29,1.6.49,2.85.54,1.25.05,1.65.07,4.84.06,3.19,0,3.59-.02,4.84-.08,1.25-.06,2.1-.26,2.85-.55.77-.3,1.43-.71,2.08-1.36.65-.65,1.05-1.31,1.35-2.08.29-.75.49-1.6.54-2.85.05-1.25.07-1.65.06-4.84,0-3.19-.02-3.59-.08-4.84s-.26-2.1-.55-2.85c-.3-.77-.71-1.43-1.36-2.08-.65-.65-1.31-1.05-2.08-1.35-.75-.29-1.6-.49-2.85-.54-1.25-.05-1.65-.07-4.84-.06-3.19,0-3.59.02-4.84.08" fill="none" stroke="#000" stroke-miterlimit="10" stroke-width=".49"/><path d="M7.17,21.77c-1.17-.05-1.81-.25-2.23-.41-.56-.22-.96-.48-1.38-.9-.42-.42-.68-.82-.9-1.38-.16-.42-.36-1.06-.42-2.23-.06-1.26-.07-1.64-.08-4.85,0-3.2,0-3.58.06-4.85.05-1.17.25-1.8.41-2.23.22-.56.48-.96.89-1.38.42-.42.82-.68,1.38-.9.42-.17,1.06-.36,2.23-.42,1.27-.06,1.64-.07,4.85-.08s3.58,0,4.85.06c1.17.05,1.81.24,2.23.41.56.22.96.48,1.38.89.42.42.68.82.9,1.38.17.42.36,1.06.42,2.23.06,1.27.07,1.64.08,4.85,0,3.2,0,3.58-.06,4.85-.05,1.17-.25,1.81-.41,2.23-.22.56-.48.96-.9,1.38-.42.42-.82.68-1.38.9-.42.16-1.06.36-2.23.42-1.27.06-1.64.07-4.85.08s-3.58,0-4.85-.06" fill="none" stroke="#000" stroke-miterlimit="10" stroke-width=".5"/><path d="M16.95,5.58c0,.8.65,1.44,1.44,1.44.8,0,1.44-.65,1.44-1.44,0-.8-.65-1.44-1.44-1.44,0,0,0,0,0,0-.8,0-1.44.65-1.44,1.44" fill="none" stroke="#000" stroke-miterlimit="10" stroke-width=".5"/><path d="M5.83,12.01c0,3.4,2.77,6.16,6.17,6.15,3.4,0,6.16-2.77,6.15-6.17,0-3.4-2.77-6.16-6.17-6.15s-6.16,2.77-6.15,6.17" fill="none" stroke="#000" stroke-miterlimit="10" stroke-width=".5"/><path d="M7.99,12c0-2.21,1.78-4,3.99-4.01,2.21,0,4,1.78,4.01,3.99,0,2.21-1.78,4-3.99,4.01-2.21,0-4-1.78-4.01-3.99,0,0,0,0,0,0" fill="none" stroke="#000" stroke-miterlimit="10" stroke-width=".5"/></g></svg>