<?xml version="1.0" encoding="UTF-8"?>
<svg id="Layer_1" xmlns="http://www.w3.org/2000/svg" version="1.1" viewBox="0 0 24 24">
  <!-- Generator: Adobe Illustrator 29.8.2, SVG Export Plug-In . SVG Version: 2.1.1 Build 3)  -->
  <defs>
    <style>
      .st0 {
        opacity: 0;
      }

      .st0, .st1 {
        display: none;
      }

      .st2 {
        fill: none;
        stroke: #000;
        stroke-miterlimit: 10;
        stroke-width: .5px;
      }

      .st3 {
        fill: red;
      }
    </style>
  </defs>
  <g id="Layer_11" data-name="Layer_1">
    <path d="M7.1.3c-1.3,0-2.1.3-2.9.6-.8.3-1.4.7-2.1,1.4-.7.7-1.1,1.3-1.4,2.1-.3.7-.5,1.6-.5,2.9v9.6c0,1.2.3,2.1.6,2.9.3.8.7,1.4,1.4,2.1.7.7,1.3,1.1,2.1,1.4.7.3,1.6.5,2.9.5h9.6c1.3,0,2.1-.3,2.8-.6.8-.3,1.4-.7,2.1-1.4.7-.7,1.1-1.3,1.4-2.1.3-.7.5-1.6.5-2.9V7.2c0-1.2-.3-2.1-.6-2.9-.3-.8-.7-1.4-1.4-2.1-.7-.7-1.3-1.1-2.1-1.4-.7-.3-1.6-.5-2.9-.5H7M7.3,21.6c-1.1,0-1.8-.2-2.2-.4-.5-.2-.9-.5-1.4-.9-.4-.4-.7-.8-.9-1.3-.2-.4-.4-1-.4-2.2V7.4c0-1.1.2-1.8.4-2.2.2-.5.5-.9.9-1.4.4-.4.8-.7,1.3-.9.4-.2,1-.4,2.2-.4h9.4c1.1,0,1.8.2,2.2.4.5.2.9.5,1.4.9.4.4.7.8.9,1.3.2.4.4,1,.4,2.2v9.4c0,1.1-.2,1.8-.4,2.2-.2.5-.5.9-.9,1.4-.4.4-.8.7-1.3.9-.4.2-1,.4-2.2.4H7.3M16.8,5.7c0,.8.6,1.4,1.4,1.4s1.4-.6,1.4-1.4-.6-1.4-1.4-1.4h0c-.8,0-1.4.6-1.4,1.4M6,12c0,3.3,2.7,6,6,6s6-2.7,6-6-2.7-6-6-6-6,2.7-6,6M8.1,12c0-2.2,1.7-3.9,3.9-3.9s3.9,1.7,3.9,3.9-1.7,3.9-3.9,3.9-3.9-1.7-3.9-3.9h0"/>
  </g>
  <g id="Layer_1_copy_2" class="st1">
    <path class="st2" d="M7.1.3c-1.3,0-2.1.3-2.9.6-.8.3-1.4.7-2.1,1.4-.7.7-1.1,1.3-1.4,2.1-.3.7-.5,1.6-.5,2.9v9.6c0,1.2.3,2.1.6,2.9.3.8.7,1.4,1.4,2.1.7.7,1.3,1.1,2.1,1.4.7.3,1.6.5,2.9.5h9.6c1.3,0,2.1-.3,2.8-.6.8-.3,1.4-.7,2.1-1.4.7-.7,1.1-1.3,1.4-2.1.3-.7.5-1.6.5-2.9V7.2c0-1.2-.3-2.1-.6-2.9-.3-.8-.7-1.4-1.4-2.1-.7-.7-1.3-1.1-2.1-1.4-.7-.3-1.6-.5-2.9-.5H7"/>
    <path class="st2" d="M7.2,21.8c-1.2,0-1.8-.2-2.2-.4-.6-.2-1-.5-1.4-.9s-.7-.8-.9-1.4c-.2-.4-.4-1.1-.4-2.2V7.3c0-1.2.2-1.8.4-2.2.2-.6.5-1,.9-1.4s.8-.7,1.4-.9c.4-.2,1.1-.4,2.2-.4h9.6c1.2,0,1.8.2,2.2.4.6.2,1,.5,1.4.9s.7.8.9,1.4c.2.4.4,1.1.4,2.2v9.6c0,1.2-.2,1.8-.4,2.2-.2.6-.5,1-.9,1.4s-.8.7-1.4.9c-.4.2-1.1.4-2.2.4H7.2"/>
    <path class="st2" d="M17,5.6c0,.8.6,1.4,1.4,1.4s1.4-.6,1.4-1.4-.6-1.4-1.4-1.4h0c-.8,0-1.4.6-1.4,1.4"/>
    <path class="st2" d="M5.8,12c0,3.4,2.8,6.2,6.2,6.1,3.4,0,6.2-2.8,6.2-6.2s-2.8-6.2-6.2-6.1-6.2,2.8-6.1,6.2"/>
    <path class="st2" d="M8,12c0-2.2,1.8-4,4-4s4,1.8,4,4-1.8,4-4,4-4-1.8-4-4h0"/>
  </g>
  <g id="Layer_1_copy" class="st0">
    <path class="st3" d="M7,0c-1.3,0-2.1.3-2.9.6-.8.3-1.5.7-2.1,1.4-.7.7-1.1,1.3-1.4,2.1-.3.8-.5,1.6-.6,2.9v9.9c0,1.3.3,2.1.6,2.9s.7,1.5,1.4,2.1c.7.7,1.3,1.1,2.1,1.4.8.3,1.6.5,2.9.6h9.8c1.3,0,2.1-.3,2.9-.6.8-.3,1.5-.7,2.1-1.4.7-.7,1.1-1.3,1.4-2.1.3-.8.5-1.6.6-2.9V7.1c0-1.2-.3-2.1-.6-2.9-.3-.8-.7-1.5-1.4-2.1-.7-.7-1.3-1.1-2.1-1.4-.8-.3-1.6-.5-2.9-.6-1.2,0-1.6,0-4.8,0h-4.9M7.2,21.8c-1.2,0-1.8-.2-2.2-.4-.6-.2-1-.5-1.4-.9s-.7-.8-.9-1.4c-.2-.4-.4-1.1-.4-2.2V7.3c0-1.2.2-1.8.4-2.2.2-.6.5-1,.9-1.4s.8-.7,1.4-.9c.4-.2,1.1-.4,2.2-.4h9.6c1.2,0,1.8.2,2.2.4.6.2,1,.5,1.4.9s.7.8.9,1.4c.2.4.4,1.1.4,2.2v9.6c0,1.2-.2,1.8-.4,2.2-.2.6-.5,1-.9,1.4s-.8.7-1.4.9c-.4.2-1.1.4-2.2.4H7.2M17,5.6c0,.8.6,1.4,1.4,1.4s1.4-.6,1.4-1.4-.6-1.4-1.4-1.4h0c-.8,0-1.4.6-1.4,1.4M5.8,12c0,3.4,2.8,6.2,6.2,6.1,3.4,0,6.2-2.8,6.2-6.2s-2.8-6.2-6.2-6.1-6.2,2.8-6.1,6.2M8,12c0-2.2,1.8-4,4-4s4,1.8,4,4-1.8,4-4,4-4-1.8-4-4h0"/>
  </g>
  <g id="Layer_3" class="st1">
    <path class="st3" d="M12,.3C5.4.3,0,5.7,0,12.3s3.4,9.8,8.2,11.4c.6.1.8-.3.8-.6v-2c-3.3.7-4-1.6-4-1.6-.5-1.4-1.3-1.8-1.3-1.8-1.1-.7,0-.7,0-.7,1.2,0,1.8,1.2,1.8,1.2,1.1,1.8,2.8,1.3,3.5,1,.1-.8.4-1.3.8-1.6-2.7-.3-5.5-1.3-5.5-5.9s.5-2.4,1.2-3.2c0-.3-.5-1.5,0-3.2,0,0,1-.3,3.3,1.2,1-.3,2-.4,3-.4s2,0,3,.4c2.3-1.6,3.3-1.2,3.3-1.2.6,1.7.2,2.9.1,3.2.8.8,1.2,1.9,1.2,3.2,0,4.6-2.8,5.6-5.5,5.9.4.4.8,1.1.8,2.2v3.3c0,.4.2.7.8.6,4.8-1.6,8.2-6.1,8.2-11.4S18.6.3,12,.3"/>
  </g>
  <g id="Layer_3_copy" class="st1">
    <path class="st2" d="M12,.5C5.5.5.2,5.8.2,12.3s3.4,9.6,8,11.1c.6.1.8-.3.8-.6v-2c-3.3.7-4-1.6-4-1.6-.5-1.4-1.3-1.7-1.3-1.7-1.1-.7,0-.7,0-.7,1.2,0,1.8,1.2,1.8,1.2,1,1.8,2.8,1.3,3.4,1,.1-.8.4-1.3.7-1.6-2.6-.3-5.4-1.3-5.4-5.8s.5-2.3,1.2-3.2c0-.3-.5-1.5,0-3.1,0,0,1-.3,3.2,1.2.9-.3,1.9-.4,2.9-.4s2,0,2.9.4c2.2-1.5,3.2-1.2,3.2-1.2.6,1.6.2,2.8.1,3.1.7.8,1.2,1.9,1.2,3.2,0,4.5-2.7,5.5-5.4,5.8.4.4.8,1.1.8,2.2v3.2c0,.4.2.7.8.6,4.7-1.5,8.1-5.9,8.1-11.1S18.5.5,12,.5"/>
  </g>
  <g id="Layer_4" class="st1">
    <path class="st3" d="M9.1,23.7v-8h-2.5v-3.7h2.5v-1.6c0-4.1,1.8-6,5.9-6s1,0,1.5,0c.4,0,.8,0,1.1.2v3.3h-1.4c-.7,0-1.3,0-1.7.3-.3.1-.5.4-.7.6-.3.4-.4,1-.4,1.8v1.3h3.9l-.4,2.1-.3,1.6h-3.2v8.2c5.9-.7,10.5-5.8,10.5-11.9S18.6,0,12,0,0,5.4,0,12s3.9,10.4,9.1,11.6h0Z"/>
  </g>
  <g id="Layer_4_copy" class="st1">
    <path d="M12,.5c6.3,0,11.5,5.2,11.5,11.5s-4.1,10.4-9.5,11.3v-7.2h3.2v-.4l.4-1.6.4-2.1v-.6c.1,0-.5,0-.5,0h-3.4v-.8c0-.7,0-1.2.3-1.5.1-.2.3-.3.5-.4.3-.2.8-.3,1.5-.3h1.8v-4.2h-.4c-.4-.2-.8-.3-1.2-.3-.6,0-1.1,0-1.5,0-4.3,0-6.4,2.1-6.4,6.5v1.1h-2.5v4.7h2.5v6.8C3.8,21.6.5,17.1.5,12S5.7.5,12,.5M12,0C5.4,0,0,5.4,0,12s3.9,10.4,9.1,11.6v-8h-2.5v-3.7h2.5v-1.6c0-4.1,1.8-6,5.9-6s1,0,1.5,0c.4,0,.8,0,1.1.2v3.3h-1.4c-.2,0,0,0,0,0-.7,0-1.3,0-1.7.3-.3.1-.5.4-.7.6-.3.4-.4,1-.4,1.8v1.3h3.9l-.4,2.1-.3,1.6h-3.2v8.2c5.9-.7,10.5-5.8,10.5-11.9S18.6,0,12,0h0Z"/>
  </g>
  <g id="Layer_5" class="st1">
    <path class="st2" d="M12,.2C5.5.2.2,5.5.2,12s3.1,9.2,7.5,11c0-.9-.2-2.4,0-3.4.2-.9,1.4-5.8,1.4-5.8,0,0-.4-.7-.4-1.7,0-1.6.9-2.9,2.1-2.9s1.5.8,1.5,1.7-.6,2.5-1,3.9c-.3,1.2.6,2.1,1.7,2.1,2.1,0,3.7-2.2,3.7-5.4s-2-4.8-4.9-4.8-5.3,2.5-5.3,5.1.4,2.1.9,2.7c0,.1,0,.2,0,.3,0,.4-.3,1.2-.3,1.3,0,.2-.2.3-.4.2-1.5-.7-2.4-2.8-2.4-4.6,0-3.7,2.7-7.1,7.8-7.1s7.3,2.9,7.3,6.8-2.6,7.3-6.1,7.3-2.3-.6-2.7-1.4l-.7,2.8c-.3,1-1,2.3-1.5,3.1,1.1.3,2.3.5,3.5.5,6.5,0,11.8-5.3,11.8-11.8S18.4.1,11.9.1h.1Z"/>
  </g>
  <g id="Layer_5_copy" class="st1">
    <path class="st2" d="M12,.2C5.5.2.2,5.5.2,12s3.1,9.2,7.5,11c0-.9-.2-2.4,0-3.4.2-.9,1.4-5.8,1.4-5.8,0,0-.4-.7-.4-1.7,0-1.6.9-2.9,2.1-2.9s1.5.8,1.5,1.7-.6,2.5-1,3.9c-.3,1.2.6,2.1,1.7,2.1,2.1,0,3.7-2.2,3.7-5.4s-2-4.8-4.9-4.8-5.3,2.5-5.3,5.1.4,2.1.9,2.7c0,.1,0,.2,0,.3,0,.4-.3,1.2-.3,1.3,0,.2-.2.3-.4.2-1.5-.7-2.4-2.8-2.4-4.6,0-3.7,2.7-7.1,7.8-7.1s7.3,2.9,7.3,6.8-2.6,7.3-6.1,7.3-2.3-.6-2.7-1.4l-.7,2.8c-.3,1-1,2.3-1.5,3.1,1.1.3,2.3.5,3.5.5,6.5,0,11.8-5.3,11.8-11.8S18.4.1,11.9.1h.1Z"/>
  </g>
  <g id="Layer_6" class="st1">
    <path d="M24,14.2c0,1.8-1.6,3.2-3.4,3.2h-8.2c-.4,0-.7-.3-.7-.7V7.9c0-.3.2-.6.5-.7,0,0,.8-.5,2.3-.5s1.9.3,2.8.8c1.3.8,2.2,2.1,2.6,3.5.3,0,.6-.1.9-.1.9,0,1.7.4,2.3,1s.9,1.5.9,2.4h0ZM10.7,8.4c.2,3,.4,5.7,0,8.7,0,.1-.1.3-.3.3s-.3-.1-.3-.3h0c-.4-2.9-.2-5.7,0-8.7,0-.1.1-.3.3-.3s.3.1.3.3ZM9.1,9.4c.3,2.7.4,5,0,7.7,0,.2-.2.3-.3.2-.1,0-.2-.1-.2-.2-.3-2.6-.3-5,0-7.7,0-.2.1-.3.3-.3s.3.1.3.3h-.1ZM7.4,9.2c.3,2.7.4,5.2,0,7.9,0,.1,0,.3-.3.3s-.3-.1-.3-.3c-.4-2.7-.3-5.2,0-7.9,0-.1,0-.3.3-.3s.3.1.3.3ZM5.8,10c.3,2.4.3,4.8,0,7.1,0,.1,0,.3-.3.2,0,0-.2-.1-.2-.2-.3-2.4-.3-4.8,0-7.1,0-.2,0-.3.3-.3s.3.1.3.3h-.1ZM4.1,11.7c.4,1.9.2,3.5,0,5.4,0,.1,0,.3-.3.3s-.3-.1-.3-.3c-.2-1.9-.4-3.5,0-5.4,0-.1,0-.3.3-.3s.2.1.3.3h0ZM2.4,11.5c.4,1.9.3,3.5,0,5.4,0,.3-.5.3-.5,0-.2-1.9-.3-3.5,0-5.4,0-.2.2-.3.3-.2,0,0,.2.1.2.2ZM.8,12.4c.4,1.3.3,2.3,0,3.6,0,.1-.1.3-.3.3s-.3-.1-.3-.3C0,14.7-.2,13.7.2,12.4c0-.2.2-.3.3-.3s.2.1.3.3Z"/>
  </g>
  <g id="Layer_6_copy" class="st1">
    <path d="M14.5,6.6v.5c.9,0,1.7.2,2.5.7,1.2.7,2,1.9,2.3,3.2,0,.1.1.3.2.3h.4c.2,0,.5-.1.7-.1.7,0,1.5.3,2,.8s.8,1.3.8,2c0,1.5-1.3,2.7-2.9,2.7h-8.2s-.2,0-.2-.2V7.8c0,0,0-.2.1-.2h0s.7-.4,2.1-.4v-.5M10.5,12.4v1.8-1.8M7.1,12.7v1.6-1.6M8.8,12.7v1.6-1.6M5.5,12.8v1.5-1.5M2.2,13.4v1-1M3.8,13.5v1-1M.5,13.7v.6-.6M14.5,6.6h0c-1.6,0-2.3.5-2.3.5-.3,0-.5.4-.5.7v8.8c0,.4.3.7.7.7h8.2c1.8,0,3.3-1.4,3.4-3.2,0-.9-.3-1.7-.9-2.4-.6-.6-1.5-1-2.3-1h0c-.3,0-.6,0-.9.1-.3-1.5-1.3-2.8-2.6-3.5-.8-.5-1.8-.8-2.7-.8h0ZM10.5,8.2c-.1,0-.3.1-.3.3-.2,3-.4,5.7,0,8.7,0,.1.1.3.3.3s.3-.1.3-.3c.4-3,.2-5.7,0-8.7,0-.1-.1-.3-.3-.3h0ZM7.1,8.9c0,0-.3.1-.3.3-.3,2.7-.4,5.2,0,7.9,0,.1,0,.3.3.3s.3-.1.3-.3c.4-2.7.3-5.2,0-7.9,0-.1,0-.3-.3-.3h0ZM8.8,9.2c-.2,0-.3.1-.3.3-.3,2.6-.3,5,0,7.7,0,.1.1.2.2.2h0c.1,0,.3-.1.3-.2.4-2.7.3-5,0-7.7,0-.2-.1-.3-.3-.3h.1ZM5.5,9.7c-.2,0-.3.1-.3.3-.3,2.4-.3,4.8,0,7.1,0,.1,0,.2.2.2h0c0,0,.3-.1.3-.2.3-2.4.3-4.8,0-7.1,0-.2,0-.3-.3-.3h.1ZM2.2,11.2c0,0-.3.1-.3.2-.3,1.9-.2,3.5,0,5.4,0,.1,0,.2.3.2s.3,0,.3-.2c.3-1.9.4-3.5,0-5.4,0-.1,0-.2-.2-.2h0ZM3.8,11.5c0,0-.3.1-.3.3-.4,1.8-.2,3.5,0,5.4,0,.1,0,.3.3.3h0c0,0,.3-.1.3-.3.3-1.9.5-3.5,0-5.4h0c0-.1,0-.2-.3-.3h0ZM.5,12.1c0,0-.3.1-.3.3C-.1,13.7,0,14.7.2,16c0,.1,0,.3.3.3s.3-.1.3-.3c.3-1.3.4-2.3,0-3.6,0-.1-.1-.2-.3-.3h0Z"/>
  </g>
  <g id="Layer_1_copy_3" class="st1">
    <path class="st2" d="M7.1.3c-1.3,0-2.1.3-2.9.6-.8.3-1.4.7-2.1,1.4-.7.7-1.1,1.3-1.4,2.1-.3.7-.5,1.6-.5,2.9v9.6c0,1.2.3,2.1.6,2.9.3.8.7,1.4,1.4,2.1.7.7,1.3,1.1,2.1,1.4.7.3,1.6.5,2.9.5h9.6c1.3,0,2.1-.3,2.8-.6.8-.3,1.4-.7,2.1-1.4.7-.7,1.1-1.3,1.4-2.1.3-.7.5-1.6.5-2.9V7.2c0-1.2-.3-2.1-.6-2.9-.3-.8-.7-1.4-1.4-2.1-.7-.7-1.3-1.1-2.1-1.4-.7-.3-1.6-.5-2.9-.5H7"/>
  </g>
  <g id="Layer_7" class="st1">
    <path d="M23.5,6.2c-.3-1-1.1-1.9-2.1-2.1-1.9-.5-9.4-.5-9.4-.5,0,0-7.5,0-9.4.5-1,.3-1.8,1.1-2.1,2.1C0,8.1,0,12,0,12,0,12,0,15.9.5,17.8c.3,1,1.1,1.9,2.1,2.1,1.9.5,9.4.5,9.4.5,0,0,7.5,0,9.4-.5,1-.3,1.8-1.1,2.1-2.1.5-1.9.5-5.8.5-5.8,0,0,0-3.9-.5-5.8ZM9.5,15.6v-7.1l6.3,3.6-6.3,3.6h0Z"/>
  </g>
</svg>