<?xml version="1.0" encoding="UTF-8"?><svg id="b" xmlns="http://www.w3.org/2000/svg" viewBox="0 0 210 194.75"><g id="c"><path d="M182.28,0c6.26,1.17,11.31,5.48,12.46,11.9.44,57.01.51,114.16-.04,171.16-1.22,6.25-6.25,10.63-12.42,11.69H12.98c-6.33-1.01-11.44-5.73-12.48-12.13V12.61C.95,6.35,6.84.7,12.98,0h169.3ZM60.35,43.61c0-9.21-7.46-16.68-16.66-16.68s-16.66,7.47-16.66,16.68,7.46,16.68,16.66,16.68,16.66-7.47,16.66-16.68ZM166.05,165.75v-55.64c-.68-16.67-4.33-33.53-22.67-38.04-12.53-3.08-27.26-1.18-36,9.06-1.14,1.34-1.92,3-2.93,4.3-.16.21,0,.45-.57.32v-12.75h-27.72v92.75h28.72v-48.14c.44-9.82,2.7-19.65,13.89-21.33,13.55-2.04,18.17,6.72,18.58,18.83v50.64s28.71,0,28.71,0ZM57.93,73h-28.72v92.75h28.72v-92.75Z"/><path d="M12.98,0C6.84.7.95,6.35.49,12.61v170.01c1.05,6.4,6.16,11.12,12.5,12.13H0V0h12.98Z" fill="none"/><path d="M210,161v1.75c-.62,1.99-1.43,3.41-3.5,4.12-4.99,1.7-9.12-3.96-5.87-8.12,2.88-3.68,8.27-2.04,9.37,2.26ZM201.59,165.17c1.33,1.33,3.53,1.57,5.17.72,4.61-2.38,1.81-10.14-3.76-8.01-2.82,1.08-3.42,5.28-1.42,7.29Z"/><path d="M166.05,165.75h-28.72v-50.64c-.4-12.11-5.02-20.87-18.57-18.83-11.19,1.68-13.45,11.51-13.9,21.33v48.14s-28.71,0-28.71,0v-92.75h27.72v12.75c.58.14.41-.11.57-.32,1.01-1.3,1.79-2.96,2.93-4.3,8.74-10.24,23.47-12.14,36-9.06,18.34,4.51,21.99,21.37,22.68,38.04v55.64Z" fill="none"/><rect x="29.22" y="73" width="28.72" height="92.75" fill="none"/><ellipse cx="43.68" cy="43.61" rx="16.66" ry="16.68" fill="none"/><path d="M201.59,165.17c-2-2.01-1.4-6.21,1.42-7.29,5.57-2.13,8.36,5.63,3.76,8.01-1.64.85-3.85.61-5.17-.72ZM203.01,159.25v5.5h.75s0-2.35,0-2.35c1.62-.83,1.55,2.59,3.25,2.35l-1.5-2.5c1.32-.02,1.93-1.28,1.26-2.39s-2.69-.46-3.76-.61Z" fill="#fff"/><path d="M203.01,159.25c1.07.15,3.11-.46,3.76.61s.06,2.37-1.26,2.39l1.5,2.5c-1.7.24-1.63-3.18-3.25-2.35v2.36s-.75,0-.75,0v-5.5ZM205.99,161.49l-.22-1.38-2.01-.11v1.75s2.24-.26,2.24-.26Z"/><polygon points="205.99 161.49 203.76 161.75 203.76 160 205.77 160.11 205.99 161.49" fill="#fff"/></g></svg>