<?xml version="1.0" encoding="UTF-8"?><svg id="b" xmlns="http://www.w3.org/2000/svg" viewBox="0 0 24 24.06"><g id="c"><path d="M12.02.25C5.52.25.25,5.52.25,12.02c0,4.99,3.1,9.24,7.48,10.96-.1-.93-.2-2.36.04-3.38.21-.92,1.38-5.85,1.38-5.85,0,0-.35-.71-.35-1.75,0-1.63.95-2.86,2.13-2.86,1.01,0,1.49.75,1.49,1.66,0,1.01-.64,2.52-.97,3.92-.28,1.17.59,2.13,1.74,2.13,2.09,0,3.7-2.2,3.7-5.39,0-2.81-2.02-4.78-4.92-4.78-3.35,0-5.31,2.51-5.31,5.1,0,1.01.39,2.1.87,2.69.1.12.11.22.08.34-.09.37-.29,1.18-.33,1.34-.05.22-.17.27-.39.16-1.47-.68-2.39-2.82-2.39-4.56,0-3.71,2.7-7.12,7.77-7.12,4.08,0,7.26,2.91,7.26,6.8s-2.56,7.32-6.12,7.32c-1.19,0-2.31-.62-2.71-1.35l-.74,2.8c-.26,1.03-.99,2.31-1.47,3.09,1.1.34,2.26.53,3.48.53,6.49,0,11.76-5.27,11.76-11.77,0-6.5-5.28-11.77-11.76-11.77l.03-.03Z" fill="none" stroke="#000" stroke-miterlimit="10" stroke-width=".5"/></g></svg>