<?xml version="1.0" encoding="UTF-8"?><svg id="b" xmlns="http://www.w3.org/2000/svg" viewBox="0 0 24.5 11.25"><g id="c"><path d="M14.8.25v.5c.88,0,1.74.24,2.49.69,1.19.7,2.04,1.87,2.33,3.21.03.13.11.25.23.32.08.05.17.07.26.07.05,0,.09,0,.14-.02.24-.07.48-.1.73-.1.74,0,1.47.31,1.99.84.52.53.8,1.26.78,2.01-.04,1.48-1.34,2.68-2.9,2.68h-8.18c-.1,0-.18-.08-.18-.18V1.46c0-.1.05-.2.15-.24.03-.01.06-.03.08-.04,0,0,.68-.43,2.06-.43l.02-.5M10.72,6.04c.02.6.02,1.19,0,1.79-.02-.59-.01-1.19,0-1.79M7.4,6.32c.01.52.01,1.04,0,1.56-.01-.53-.01-1.05,0-1.56M9.06,6.35c.02.54.01,1.07,0,1.58-.01-.51-.01-1.03,0-1.58M5.74,6.4c.01.49.01.98,0,1.48-.01-.49-.01-.99,0-1.48M2.42,7.02c.01.34.01.67,0,1.02-.01-.34-.01-.68,0-1.02M4.08,7.15c.01.33.01.67,0,1.01-.01-.34-.01-.67,0-1.01M.76,7.28c.01.19.01.38,0,.58,0-.19,0-.39,0-.58M14.8.25s-.01,0-.02,0c-1.58,0-2.33.51-2.33.51-.29.12-.47.41-.45.72v8.79c0,.37.3.68.68.68h8.18c1.79,0,3.35-1.37,3.4-3.17.03-.88-.31-1.74-.92-2.37-.62-.63-1.46-.99-2.35-.99,0,0,0,0-.01,0-.29,0-.58.04-.86.12-.32-1.49-1.26-2.77-2.57-3.54-.83-.49-1.78-.76-2.74-.76h0ZM10.71,1.78c-.15,0-.26.12-.26.27-.22,2.95-.4,5.73,0,8.67,0,.15.12.26.26.26s.27-.12.27-.26c.43-2.98.25-5.69,0-8.67,0-.15-.12-.27-.27-.27h0ZM7.39,2.55c-.15,0-.27.12-.27.27-.26,2.69-.38,5.21,0,7.9,0,.15.12.27.27.27s.27-.12.27-.27c.39-2.73.27-5.18,0-7.9,0-.15-.12-.27-.27-.27h0ZM9.04,2.8c-.15,0-.28.12-.28.28-.26,2.63-.33,5.02,0,7.66.02.13.12.23.24.24.01,0,.02,0,.03,0,.14,0,.26-.1.27-.24.38-2.67.29-5,0-7.66,0-.15-.12-.28-.28-.28h0ZM5.74,3.31c-.15,0-.28.12-.28.27-.31,2.37-.31,4.77,0,7.15.01.13.12.24.25.25,0,0,.02,0,.02,0,.14,0,.26-.11.27-.25.33-2.37.33-4.78,0-7.15,0-.15-.12-.27-.27-.27h0ZM2.41,4.84c-.14,0-.26.1-.28.24-.34,1.87-.23,3.53,0,5.41.01.14.14.21.27.21s.26-.07.27-.21c.27-1.9.4-3.51,0-5.41-.02-.12-.12-.22-.24-.24-.01,0-.03,0-.04,0h0ZM4.07,5.1c-.14,0-.26.11-.27.26-.4,1.84-.21,3.53,0,5.39,0,.14.12.26.26.26h0c.14,0,.26-.11.26-.26.26-1.89.45-3.52.03-5.39h0c0-.14-.12-.25-.26-.26,0,0-.01,0-.02,0h0ZM.74,5.74c-.14,0-.27.11-.28.25-.33,1.26-.22,2.31.02,3.57,0,.14.12.26.26.26.14,0,.26-.12.26-.26.28-1.28.43-2.3.03-3.57-.01-.13-.12-.24-.25-.25,0,0-.02,0-.03,0h0Z"/></g></svg>