<?xml version="1.0" encoding="UTF-8"?><svg id="b" xmlns="http://www.w3.org/2000/svg" viewBox="0 0 24 16.91"><g id="c"><path d="M12,.77h0c2.06,0,7.72.09,9.17.48.77.21,1.38.82,1.58,1.59.47,1.76.48,5.58.48,5.62s0,3.85-.48,5.62c-.2.77-.81,1.38-1.58,1.59-1.45.39-7.12.48-9.18.48-2.06,0-7.72-.09-9.17-.48-.77-.21-1.38-.82-1.58-1.59-.47-1.76-.48-5.58-.48-5.62s0-3.85.48-5.62c.21-.77.81-1.38,1.58-1.59,1.45-.39,7.12-.48,9.18-.48M12,0S4.49,0,2.62.5C1.59.79.78,1.6.5,2.64c-.5,1.88-.5,5.81-.5,5.81,0,0,0,3.93.5,5.81.28,1.04,1.08,1.85,2.12,2.14,1.87.51,9.38.51,9.38.51,0,0,7.5,0,9.38-.51,1.04-.28,1.85-1.1,2.12-2.14.5-1.88.5-5.81.5-5.81,0,0,0-3.93-.5-5.81-.28-1.04-1.08-1.85-2.12-2.14-1.87-.5-9.38-.5-9.38-.5h0Z"/><polygon points="10.06 5.77 14.79 8.45 10.06 11.15 10.06 5.77"/><path d="M10.57,6.64l3.19,1.81-3.19,1.81v-3.62M9.54,4.89v7.14l6.27-3.57-6.27-3.57h0Z"/></g></svg>